<?xml version="1.0" encoding="UTF-8" standalone="no"?>
<svg
   version="1.1"
   id="svg413"
   sodipodi:docname="tree.svg"
   width="83.470001"
   height="66.255997"
   inkscape:version="1.1.2 (0a00cf5339, 2022-02-04)"
   xmlns:inkscape="http://www.inkscape.org/namespaces/inkscape"
   xmlns:sodipodi="http://sodipodi.sourceforge.net/DTD/sodipodi-0.dtd"
   xmlns="http://www.w3.org/2000/svg"
   xmlns:svg="http://www.w3.org/2000/svg">
  <defs
     id="defs417" />
  <sodipodi:namedview
     id="namedview415"
     pagecolor="#ffffff"
     bordercolor="#666666"
     borderopacity="1.0"
     inkscape:pageshadow="2"
     inkscape:pageopacity="0.0"
     inkscape:pagecheckerboard="0"
     showgrid="false"
     inkscape:zoom="4"
     inkscape:cx="56.875"
     inkscape:cy="84"
     inkscape:window-width="2752"
     inkscape:window-height="1083"
     inkscape:window-x="0"
     inkscape:window-y="32"
     inkscape:window-maximized="1"
     inkscape:current-layer="svg413" />
  <g
     id="g411"
     transform="translate(-7.246,-17.746)">
    <path
       d="m 58.487,53.604 c 7.017,-3.818 20.02,0 20.02,0 -4.575,-2.099 -8.112,-2.262 -9.97,-2.88 1.452,-2.881 4.604,-6.095 8.216,-9.913 -2.064,1.239 -4.438,2.996 -7.224,6.711 -2.787,3.715 -7.121,3 -8.669,2.277 -1.548,-0.722 -0.825,-5.534 0.619,-10.178 -2.477,4.231 -2.27,7.378 -3.147,9.959 -0.877,2.58 -4.179,2.167 -8.926,6.501 -0.375,0.356 -0.723,0.722 -1.071,1.088 0.348,-0.378 0.704,-0.745 1.071,-1.088 -2.607,-5.184 -0.887,-9.872 2.418,-13.403 -3.08,1.879 -4.058,3.156 -5.109,4.959 -2.179,-13.899 5.109,-19.76 5.109,-19.76 -3.756,1.727 -5.861,9.694 -6.988,13.301 -1.502,-2.855 -6.009,-6.386 -6.009,-6.386 0,0 3.23,4.282 5.259,10.368 2.029,6.085 1.127,11.946 -1.127,12.321 -5.559,-0.902 -7.137,-5.635 -8.452,-8.49 0.263,2.404 1.465,5.259 1.465,5.259 0,0 -2.705,0.226 -5.56,-0.827 -3.607,-2.136 -6.926,-9.059 -10.846,-11.438 2.211,1.657 6.321,8.64 8.968,11.964 -2.855,0.075 -8.49,2.405 -11.345,5.109 8.265,-5.109 14.726,-4.281 18.483,-2.93 0.225,1.503 -3.907,6.461 -6.162,9.016 3.381,-3.006 6.162,-5.711 8.19,-8.34 4.794,1.615 5.019,6.506 4.152,8.945 -1.751,4.927 -2.044,9.26 -2.044,11.155 0,3.095 1.374,7.098 1.374,7.098 h 5.231 3.302 c 0,0 0.31,0 4.127,0 -1.754,0 -7.327,-5.241 -7.327,-12.671 0,-10.939 10.01,-16.901 11.145,-16.694 1.136,0.207 5.16,4.849 9.598,6.5 -3.612,-1.65 -7.842,-5.985 -8.771,-7.533 z"
       id="path237" />
    <path
       d="m 19.565,41.986 c -0.237,-0.179 -0.46,-0.314 -0.649,-0.358 0.218,0.102 0.434,0.227 0.649,0.358 z"
       id="path239" />
    <path
       d="m 10.576,64.214 c 4.411,0.188 6.4,-2.925 6.227,-4.828 0,10e-4 -5.102,0.055 -6.227,4.828 z"
       id="path241" />
    <path
       d="m 20.079,54.863 c 0,0 -3.646,-3.569 -7.816,-0.99 2.985,3.252 6.593,2.457 7.816,0.99 z"
       id="path243" />
    <path
       d="m 13.499,57.694 c 0,0 -3.29,-2.365 -6.253,0.16 2.732,2.195 5.469,1.139 6.253,-0.16 z"
       id="path245" />
    <path
       d="m 23.908,51.697 c 0,0 -2.067,0.339 -2.228,2.345 1.801,-0.196 2.416,-1.584 2.228,-2.345 z"
       id="path247" />
    <path
       d="m 20.8,46.802 c 0.267,2.447 2.152,3.281 3.188,3.025 0,0 -0.462,-2.808 -3.188,-3.025 z"
       id="path249" />
    <path
       d="m 17.022,49.997 c 1.646,2.402 4.075,2.219 5.012,1.373 0,0 -2.049,-2.669 -5.012,-1.373 z"
       id="path251" />
    <path
       d="m 15.256,45.121 c 2.719,2.024 5.325,0.904 6.037,-0.382 0,0 -3.265,-2.163 -6.037,0.382 z"
       id="path253" />
    <path
       d="m 13.595,50.536 c 2.032,-0.685 2.388,-2.442 1.975,-3.276 0,-10e-4 -2.299,0.92 -1.975,3.276 z"
       id="path255" />
    <path
       d="m 13.985,45.964 c 0,0 -1.647,-1.85 -3.753,-0.743 1.336,1.677 3.11,1.415 3.753,0.743 z"
       id="path257" />
    <path
       d="m 15.739,37.773 c 0,0 -1.708,-3.129 -5.02,-2.262 1.326,2.786 3.9,2.994 5.02,2.262 z"
       id="path259" />
    <path
       d="m 18.974,38.457 c 0,0 1.405,-3.76 -1.773,-5.94 -1.394,3.18 0.325,5.525 1.773,5.94 z"
       id="path261" />
    <path
       d="m 22.356,41.787 c 0,0 2.513,-3.717 -0.369,-6.919 -2.348,3.09 -1.095,6.089 0.369,6.919 z"
       id="path263" />
    <path
       d="m 24.854,44.923 c 0,0 1.83,-0.876 1.436,-2.783 -1.621,0.669 -1.817,2.124 -1.436,2.783 z"
       id="path265" />
    <path
       d="m 27.087,48.392 c 0,0 1.635,-1.808 0.33,-3.75 -1.5,1.483 -1.055,3.191 -0.33,3.75 z"
       id="path267" />
    <path
       d="m 32.123,46.062 c -0.333,1.867 0.879,2.893 1.702,2.926 0,0 0.264,-2.176 -1.702,-2.926 z"
       id="path269" />
    <path
       d="m 40.1,46.769 c -2.747,0.237 -3.728,2.327 -3.466,3.494 0,0 3.156,-0.452 3.466,-3.494 z"
       id="path271" />
    <path
       d="m 39.039,41.773 c -3.55,1.058 -4.272,4.073 -3.611,5.537 0,10e-4 4.029,-1.451 3.611,-5.537 z"
       id="path273" />
    <path
       d="m 32.226,41.312 c -0.342,2.439 1.281,3.711 2.351,3.716 0,0 0.236,-2.838 -2.351,-3.716 z"
       id="path275" />
    <path
       d="m 25.058,36.775 c -0.266,1.892 0.994,2.88 1.824,2.883 0,10e-4 0.184,-2.201 -1.824,-2.883 z"
       id="path277" />
    <path
       d="m 28.659,40.785 c 0,0 2.757,0.23 3.61,-2.283 -2.37,-0.334 -3.607,1.245 -3.61,2.283 z"
       id="path279" />
    <path
       d="m 28.377,38.062 c 0,0 3.168,-0.949 3.019,-4.118 -2.781,0.665 -3.468,2.96 -3.019,4.118 z"
       id="path281" />
    <path
       d="m 30.018,27.856 c -2.532,1.329 -2.634,3.723 -1.913,4.734 -0.001,0 2.837,-1.698 1.913,-4.734 z"
       id="path283" />
    <path
       d="m 26.891,29.555 c 0,0 0.032,-3.781 -3.481,-4.687 -0.212,3.262 2.064,4.787 3.481,4.687 z"
       id="path285" />
    <path
       d="m 23.247,31.289 c 0,0 0.021,-2.517 -2.316,-3.119 -0.141,2.171 1.373,3.185 2.316,3.119 z"
       id="path287" />
    <path
       d="m 25.673,33.192 c 0,0 -1.875,-1.678 -3.872,-0.323 1.537,1.541 3.299,1.074 3.872,0.323 z"
       id="path289" />
    <path
       d="m 33.875,38.835 c -0.241,1.721 0.904,2.619 1.659,2.623 10e-4,0 0.168,-2.004 -1.659,-2.623 z"
       id="path291" />
    <path
       d="m 35.315,37.604 c 1.774,1.58 3.664,0.957 4.24,0.102 0,0 -2.151,-1.709 -4.24,-0.102 z"
       id="path293" />
    <path
       d="m 38.361,34.719 c 0,0 -1.487,-4.423 -5.948,-4.061 1.069,3.889 4.337,4.746 5.948,4.061 z"
       id="path295" />
    <path
       d="m 42.252,36.25 c 0,0 3.368,-3.23 1.14,-7.112 -3.063,2.624 -2.446,5.946 -1.14,7.112 z"
       id="path297" />
    <path
       d="m 38.949,32.947 c 0,0 3.368,-3.229 1.14,-7.111 -3.062,2.624 -2.445,5.946 -1.14,7.111 z"
       id="path299" />
    <path
       d="m 43.611,23.813 c 0,0 1.759,-3.598 -1.184,-6.067 -1.691,3.019 -0.212,5.513 1.184,6.067 z"
       id="path301" />
    <path
       d="m 49.804,27.996 c 0,0 2.466,-3.819 -0.52,-6.996 -2.311,3.175 -0.979,6.185 0.52,6.996 z"
       id="path303" />
    <path
       d="m 61.213,23.044 c -4.559,-0.967 -7.174,1.934 -7.328,3.95 0,0 5.331,0.822 7.328,-3.95 z"
       id="path305" />
    <path
       d="m 53.646,20.748 c -1.821,1.359 -1.6,3.25 -0.911,3.954 10e-4,0 2.017,-1.687 0.911,-3.954 z"
       id="path307" />
    <path
       d="m 59.238,31.093 c -2.618,-3.166 -6.01,-2.595 -7.22,-1.287 0,0 3.229,3.486 7.22,1.287 z"
       id="path309" />
    <path
       d="m 54.847,34.73 c -1.625,-1.965 -3.731,-1.611 -4.483,-0.798 0,0 2.006,2.164 4.483,0.798 z"
       id="path311" />
    <path
       d="m 52.683,41.746 c 0,0 3.896,-0.613 4.225,-4.382 -3.393,0.341 -4.569,2.943 -4.225,4.382 z"
       id="path313" />
    <path
       d="m 63.418,38.442 c 0,0 5.548,-0.874 6.017,-6.241 -4.831,0.487 -6.506,4.193 -6.017,6.241 z"
       id="path315" />
    <path
       d="m 74.765,40.559 c 0,0 3.856,-1.887 2.991,-5.912 -3.42,1.442 -3.81,4.526 -2.991,5.912 z"
       id="path317" />
    <path
       d="m 70.811,44.964 c 0,0 2.271,-2.581 0.394,-5.291 -2.086,2.118 -1.426,4.518 -0.394,5.291 z"
       id="path319" />
    <path
       d="m 81.215,30.705 c -2.146,0.488 -2.693,2.248 -2.358,3.143 -0.001,-10e-4 2.447,-0.703 2.358,-3.143 z"
       id="path321" />
    <path
       d="m 83.291,32.896 c -4.031,0.917 -5.059,4.223 -4.43,5.903 -0.001,10e-4 4.596,-1.319 4.43,-5.903 z"
       id="path323" />
    <path
       d="m 79.063,40.319 c 0,0 3.4,3.362 7.316,0.972 -2.773,-3.066 -6.158,-2.344 -7.316,-0.972 z"
       id="path325" />
    <path
       d="m 76.063,43.493 c 0,0 1.93,4.146 6.237,3.307 -1.466,-3.672 -4.741,-4.152 -6.237,-3.307 z"
       id="path327" />
    <path
       d="m 81.017,52.575 c 0,0 2.063,4.433 6.667,3.536 -1.567,-3.925 -5.068,-4.44 -6.667,-3.536 z"
       id="path329" />
    <path
       d="m 80.378,56.529 c 0,0 0.879,3.803 4.624,3.864 -0.576,-3.325 -3.227,-4.305 -4.624,-3.864 z"
       id="path331" />
    <path
       d="m 76.651,56.474 c 0,0 -1.078,3.75 2.166,5.622 1.111,-3.186 -0.729,-5.329 -2.166,-5.622 z"
       id="path333" />
    <path
       d="m 76.83,54.62 c 0,0 0.988,1.743 2.839,1.224 -0.77,-1.551 -2.216,-1.645 -2.839,-1.224 z"
       id="path335" />
    <path
       d="m 74.386,55.359 c 0,0 -2.042,1.896 -0.747,4.236 1.853,-1.539 1.516,-3.527 0.747,-4.236 z"
       id="path337" />
    <path
       d="m 74.849,62.496 c -1.909,-3.201 -5.028,-3.161 -6.298,-2.156 0,0 2.412,3.576 6.298,2.156 z"
       id="path339" />
    <path
       d="m 71.341,55.727 c -3.641,-0.793 -5.744,1.51 -5.877,3.124 0,0 4.258,0.684 5.877,-3.124 z"
       id="path341" />
    <path
       d="m 61.955,54.936 c 0,0 2.609,1.421 4.535,-0.683 -2.185,-1.35 -4.079,-0.336 -4.535,0.683 z"
       id="path343" />
    <path
       d="m 72.124,64.573 c 0,0 0.058,3.639 3.459,4.426 0.125,-3.144 -2.099,-4.552 -3.459,-4.426 z"
       id="path345" />
    <path
       d="m 67.543,62.669 c 0,0 -0.515,4.288 3.359,5.759 0.651,-3.676 -1.738,-5.69 -3.359,-5.759 z"
       id="path347" />
    <path
       d="m 63.146,60.576 c 0,0 -2.03,3.312 0.584,5.968 1.911,-2.76 0.715,-5.303 -0.584,-5.968 z"
       id="path349" />
    <path
       d="m 56.401,63.55 c 2.979,-1.248 3.328,-3.93 2.619,-5.141 0,0 -3.363,1.632 -2.619,5.141 z"
       id="path351" />
    <path
       d="m 58.157,55.693 c 0,0 -2.973,0.329 -3.353,3.172 2.581,-0.141 3.563,-2.07 3.353,-3.172 z"
       id="path353" />
    <path
       d="m 60.262,57.488 c 0,0 -0.967,2.056 0.724,3.431 0.933,-1.728 0.074,-3.13 -0.724,-3.431 z"
       id="path355" />
    <path
       d="m 87.944,35.874 c -2.815,-0.584 -4.421,1.209 -4.509,2.453 0,0 3.288,0.495 4.509,-2.453 z"
       id="path357" />
    <path
       d="m 62.942,41.948 c 0,0 3.547,1.009 5.306,-2.059 -3.012,-1.042 -5.031,0.703 -5.306,2.059 z"
       id="path359" />
    <path
       d="m 65.1,46.837 c 0,0 2.726,-0.43 2.956,-3.066 -2.374,0.239 -3.196,2.059 -2.956,3.066 z"
       id="path361" />
    <path
       d="m 64.18,48.054 c 0,0 0.506,-2.394 -1.606,-3.418 -0.552,2.04 0.697,3.298 1.606,3.418 z"
       id="path363" />
    <path
       d="m 64.804,47.763 c 0,0 1.28,1.249 2.738,0.346 -1.044,-1.138 -2.308,-0.861 -2.738,-0.346 z"
       id="path365" />
    <path
       d="m 81.457,48.97 c -3.012,-1.042 -5.031,0.703 -5.306,2.059 0,0 3.547,1.009 5.306,-2.059 z"
       id="path367" />
    <path
       d="m 72.329,49.956 c 0,0 3.684,0.173 4.696,-3.215 -3.17,-0.328 -4.738,1.832 -4.696,3.215 z"
       id="path369" />
    <path
       d="m 85.051,45.599 c 0,0 2.714,2.496 5.665,0.547 -2.222,-2.286 -4.81,-1.635 -5.665,-0.547 z"
       id="path371" />
    <path
       d="m 85.867,43.084 c -2.021,-0.194 -3.009,1.189 -2.976,2.07 0,0 2.348,0.093 2.976,-2.07 z"
       id="path373" />
    <path
       d="m 86.216,49.122 c -0.295,-2.4 -2.158,-3.194 -3.172,-2.929 -10e-4,0 0.495,2.755 3.172,2.929 z"
       id="path375" />
    <path
       d="m 59.988,34.274 c -0.852,2.462 0.575,4.114 1.683,4.338 0,10e-4 0.825,-2.899 -1.683,-4.338 z"
       id="path377" />
    <path
       d="m 60.395,26.242 c -0.714,2.065 0.482,3.45 1.412,3.638 -0.001,0 0.691,-2.431 -1.412,-3.638 z"
       id="path379" />
    <path
       d="m 70.062,31.532 c 0,0 0.691,-2.432 -1.411,-3.639 -0.715,2.066 0.481,3.45 1.411,3.639 z"
       id="path381" />
    <path
       d="m 76.743,33.253 c 0,0 -2.542,-2.233 -5.208,-0.385 2.086,2.05 4.446,1.4 5.208,0.385 z"
       id="path383" />
    <path
       d="m 71.734,28.36 c 0,0 1.625,-1.937 0.199,-3.897 -1.497,1.593 -0.971,3.346 -0.199,3.897 z"
       id="path385" />
    <path
       d="m 66.375,30.392 c -2.098,-0.716 -3.496,0.505 -3.684,1.448 10e-4,0 2.471,0.69 3.684,-1.448 z"
       id="path387" />
    <path
       d="m 67.392,25.246 c -3.258,0.096 -4.553,2.496 -4.326,3.89 0,0 3.755,-0.321 4.326,-3.89 z"
       id="path389" />
    <path
       d="m 72.149,30.787 c 0,0 4.568,-0.39 5.262,-4.732 -3.963,0.115 -5.54,3.035 -5.262,4.732 z"
       id="path391" />
    <path
       d="m 48.831,40.125 c -0.144,1.874 1.154,2.766 1.968,2.719 0,0 0.045,-2.175 -1.968,-2.719 z"
       id="path393" />
    <path
       d="m 52.443,39.855 c 0,0 1.307,-2.096 -0.34,-3.798 -1.231,1.746 -0.482,3.37 0.34,3.798 z"
       id="path395" />
    <path
       d="m 56.855,44.819 c 0,0 -1.815,-2.458 -4.523,-1.334 1.449,2.207 3.658,2.085 4.523,1.334 z"
       id="path397" />
    <path
       d="m 46.812,22.417 c -2.148,0.757 -2.5,2.633 -2.052,3.513 0,0 2.433,-1.013 2.052,-3.513 z"
       id="path399" />
    <path
       d="m 42.742,25.688 c 0,0 -1.152,-1.774 -3.072,-1.111 0.91,1.587 2.442,1.593 3.072,1.111 z"
       id="path401" />
    <path
       d="m 35.751,29.489 c 0,0 1.085,-3.37 -1.8,-5.16 -1.101,2.856 0.508,4.851 1.8,5.16 z"
       id="path403" />
    <path
       d="m 18.109,41.006 c 0,0 -3.384,-3.799 -7.708,-1.525 2.744,3.444 6.387,2.905 7.708,1.525 z"
       id="path405" />
    <path
       d="m 13.111,47.517 c 0,0 -3.641,-1.35 -5.741,1.731 3.081,1.34 5.343,-0.328 5.741,-1.731 z"
       id="path407" />
    <path
       d="m 18.175,62.937 c 3.435,-0.701 4.371,-3.483 3.873,-4.916 -10e-4,0 -3.923,1.021 -3.873,4.916 z"
       id="path409" />
  </g>
</svg>
